<svg xmlns="http://www.w3.org/2000/svg" width="60" height="60" viewBox="0 0 60 60">
  <rect id="Rechteck_2" data-name="Rechteck 2" width="60" height="60" fill="rgba(255,255,255,0)"/>
  <g id="Pfad_4" data-name="Pfad 4" transform="translate(14.558 16.173)" fill="#d03131">
    <path d="M 15.4422025680542 27.56681442260742 C 11.65702724456787 24.97968864440918 8.529278755187988 22.37270736694336 6.141882419586182 19.81467437744141 C 3.957402467727661 17.47406578063965 2.382162570953369 15.16588497161865 1.45990252494812 12.95425510406494 C 0.7337225675582886 11.2122049331665 0.416992574930191 9.541275024414062 0.5185225605964661 7.9879150390625 C 0.609652578830719 6.593775272369385 1.033432602882385 5.320425033569336 1.778082609176636 4.203255176544189 C 3.300652503967285 1.919005036354065 6.062682628631592 0.5000050067901611 8.986322402954102 0.5000050067901611 C 11.43204212188721 0.5000050067901611 13.58754253387451 1.484884977340698 15.05576229095459 3.273205041885376 L 15.4422025680542 3.743905067443848 L 15.82864284515381 3.273205041885376 C 17.29686164855957 1.484884977340698 19.45236206054688 0.5000050067901611 21.8980827331543 0.5000050067901611 C 24.82200241088867 0.5000050067901611 27.58416175842285 1.918915033340454 29.10662269592285 4.203014850616455 C 29.85124206542969 5.320145130157471 30.27498245239258 6.593464851379395 30.36605262756348 7.987635135650635 C 30.46753311157227 9.541014671325684 30.15074348449707 11.21204471588135 29.42446327209473 12.95431518554688 C 28.50223350524902 15.16588497161865 26.92699241638184 17.47406578063965 24.74252319335938 19.81467437744141 C 22.35512542724609 22.37270736694336 19.22737884521484 24.97968864440918 15.4422025680542 27.56681442260742 Z" stroke="none"/>
    <path d="M 15.4422025680542 26.96029853820801 C 19.07040023803711 24.45771789550781 22.07402229309082 21.94108963012695 24.37698173522949 19.47352409362793 C 26.520751953125 17.1765251159668 28.06371307373047 14.91838550567627 28.96296310424805 12.76193523406982 C 30.63179206848145 8.758544921875 29.73595237731934 6.048675060272217 28.69057273864746 4.480325222015381 C 27.25966262817383 2.333585023880005 24.65693283081055 1.000005006790161 21.8980827331543 1.000005006790161 C 19.60483169555664 1.000005006790161 17.58657264709473 1.919985055923462 16.21509170532227 3.590475082397461 L 15.4422025680542 4.531875133514404 L 14.66931247711182 3.590475082397461 C 13.29783248901367 1.919985055923462 11.27957248687744 1.000005006790161 8.986322402954102 1.000005006790161 C 6.227752685546875 1.000005006790161 3.625142574310303 2.333675146102905 2.194132566452026 4.480565071105957 C 1.148692607879639 6.049005031585693 0.2527525722980499 8.758905410766602 1.921392560005188 12.76181507110596 C 2.820682525634766 14.91838550567627 4.363642692565918 17.1765251159668 6.507412433624268 19.47351455688477 C 8.810372352600098 21.94107818603516 11.81400299072266 24.45771789550781 15.4422025680542 26.96029853820801 M 15.4422025680542 28.17158508300781 C 7.139032363891602 22.54664421081543 2.784342527389526 17.4294548034668 0.9984225630760193 13.14669513702393 C -2.354783058166504 5.102658748626709 3.355313301086426 7.965698387124576e-06 8.986320495605469 7.965698387124576e-06 C 11.38966274261475 7.965698387124576e-06 13.77826499938965 0.9292201995849609 15.4422025680542 2.955935001373291 C 17.10579872131348 0.9296336770057678 19.49523544311523 7.965698387124576e-06 21.89807891845703 7.965698387124576e-06 C 27.52956199645996 7.965698387124576e-06 33.23947906494141 5.101958274841309 29.88597297668457 13.14669513702393 C 28.10005187988281 17.4294548034668 23.7453727722168 22.54664421081543 15.4422025680542 28.17158508300781 Z" stroke="none" fill="#d03131"/>
  </g>
</svg>
